<svg xmlns="http://www.w3.org/2000/svg" viewBox="0 0 285 285"><defs><style>.cls-1,.cls-3,.cls-4,.cls-6{fill:none;stroke-miterlimit:10;}.cls-1,.cls-3{stroke:#203956;}.cls-1,.cls-4{stroke-width:5px;}.cls-1,.cls-2,.cls-3{opacity:0.5;}.cls-2,.cls-5{font-size:22px;font-family:Swiss721BT-Black, Swis721 Blk BT;font-weight:800;}.cls-2{fill:#203956;}.cls-3,.cls-6{stroke-width:10px;}.cls-4,.cls-6{stroke:#fff;}.cls-5{fill:#fff;}</style></defs><title>100%</title><g id="_100_" data-name="100%"><circle class="cls-1" cx="145.5" cy="145.5" r="130"/><text class="cls-2" transform="matrix(-1, -0.02, 0.02, -1, 152.03, 15.71)"> </text><text class="cls-2" transform="translate(143.41 15.56) rotate(177.46)"> </text><text class="cls-2" transform="matrix(-0.99, 0.11, -0.11, -0.99, 134.77, 15.99)"> </text><text class="cls-2" transform="translate(126.18 17) rotate(169.67)"> </text><text class="cls-2" transform="translate(117.69 18.6) rotate(165.75)"> </text><text class="cls-2" transform="translate(109.3 20.78) rotate(161.81)"> </text><text class="cls-2" transform="matrix(-0.93, 0.38, -0.38, -0.93, 101.1, 23.52)"> </text><text class="cls-2" transform="translate(93.12 26.82) rotate(153.97)"> </text><text class="cls-2" transform="translate(85.37 30.66) rotate(150.06)"> </text><text class="cls-2" transform="translate(77.91 35.01) rotate(146.16)"> </text><text class="cls-2" transform="translate(70.75 39.87) rotate(142.27)"> </text><text class="cls-2" transform="translate(63.97 45.17) rotate(138.39)"> </text><text class="cls-2" transform="translate(57.53 50.96) rotate(134.51)"> </text><text class="cls-2" transform="matrix(-0.65, 0.76, -0.76, -0.65, 51.51, 57.14)"> </text><text class="cls-2" transform="matrix(-0.6, 0.8, -0.8, -0.6, 45.92, 63.73)"> </text><text class="cls-2" transform="matrix(-0.54, 0.84, -0.84, -0.54, 40.79, 70.68)"> </text><text class="cls-2" transform="translate(36.15 77.96) rotate(118.96)"> </text><text class="cls-2" transform="matrix(-0.42, 0.91, -0.91, -0.42, 32, 85.56)"> </text><text class="cls-2" transform="translate(28.39 93.4) rotate(111.12)"> </text><text class="cls-2" transform="matrix(-0.3, 0.96, -0.96, -0.3, 25.31, 101.5)"> </text><text class="cls-2" transform="matrix(-0.23, 0.97, -0.97, -0.23, 22.8, 109.78)"> </text><text class="cls-2" transform="matrix(-0.16, 0.99, -0.99, -0.16, 20.87, 118.2)"> </text><text class="cls-2" transform="translate(19.51 126.74) rotate(95.44)"> </text><text class="cls-2" transform="translate(18.74 135.36) rotate(91.56)"> </text><text class="cls-2" transform="translate(18.55 143.98) rotate(87.73)"> </text><text class="cls-2" transform="matrix(0.11, 0.99, -0.99, 0.11, 18.94, 152.6)"> </text><text class="cls-2" transform="translate(19.91 161.18) rotate(79.96)"> </text><text class="cls-2" transform="translate(21.46 169.69) rotate(76.04)"> </text><text class="cls-2" transform="translate(23.59 178.07) rotate(72.11)"> </text><text class="cls-2" transform="matrix(0.37, 0.93, -0.93, 0.37, 26.3, 186.28)"> </text><text class="cls-2" transform="translate(29.56 194.31) rotate(64.25)"> </text><text class="cls-2" transform="matrix(0.49, 0.87, -0.87, 0.49, 33.35, 202.06)"> </text><text class="cls-2" transform="matrix(0.55, 0.83, -0.83, 0.55, 37.67, 209.54)"> </text><text class="cls-2" transform="matrix(0.61, 0.79, -0.79, 0.61, 42.49, 216.73)"> </text><text class="cls-2" transform="matrix(0.66, 0.75, -0.75, 0.66, 47.78, 223.56)"> </text><text class="cls-2" transform="translate(53.56 230.08) rotate(44.51)">I</text><text class="cls-2" transform="matrix(0.78, 0.62, -0.62, 0.78, 60.86, 237.34)">T</text><text class="cls-2" transform="matrix(0.84, 0.54, -0.54, 0.84, 73.92, 247.37)"> </text><text class="cls-2" transform="translate(81.26 252.05) rotate(28.54)">I</text><text class="cls-2" transform="translate(90.33 257.09) rotate(22.19)">S</text><text class="cls-2" transform="translate(106.77 263.44) rotate(16.1)"> </text><text class="cls-2" transform="translate(115.69 266.21) rotate(9.45)">N</text><text class="cls-2" transform="translate(135.89 269.27) rotate(0.93)">E</text><text class="cls-2" transform="matrix(0.99, -0.13, 0.13, 0.99, 153.8, 269.43)">C</text><text class="cls-2" transform="translate(173.39 266.57) rotate(-16.1)">E</text><text class="cls-2" transform="translate(190.41 261.49) rotate(-24.24)">S</text><text class="cls-2" transform="translate(207.31 253.64) rotate(-32.66)">S</text><text class="cls-2" transform="translate(222.52 243.69) rotate(-40.94)">A</text><text class="cls-2" transform="translate(236.56 231.29) rotate(-49.48)">R</text><text class="cls-2" transform="translate(248.99 216.41) rotate(-58.07)">Y</text><circle class="cls-1" cx="145.5" cy="145.5" r="137"/><circle class="cls-3" cx="145.5" cy="145.5" r="99"/><text class="cls-2" transform="translate(45.63 103.01) rotate(-61.27)">M</text><text class="cls-2" transform="matrix(0.62, -0.78, 0.78, 0.62, 55.72, 84.99)">A</text><text class="cls-2" transform="translate(65.68 72.38) rotate(-42.96)">R</text><text class="cls-2" transform="matrix(0.83, -0.56, 0.56, 0.83, 77.85, 61.01)">K</text><text class="cls-2" transform="matrix(0.9, -0.43, 0.43, 0.9, 92.02, 51.5)">E</text><text class="cls-2" transform="matrix(0.95, -0.3, 0.3, 0.95, 105.81, 44.93)">T</text><text class="cls-2" transform="translate(119.67 40.52) rotate(-9.62)">E</text><text class="cls-2" transform="translate(134.7 37.91) rotate(-1.2)">R</text><text class="cls-2" transform="translate(151.5 37.82) rotate(5.09)"> </text><text class="cls-2" transform="translate(158.88 38.48) rotate(9.01)"> </text><text class="cls-2" transform="matrix(0.97, 0.26, -0.26, 0.97, 166.12, 39.41)">S</text><text class="cls-2" transform="translate(181.19 43.46) rotate(23.6)">A</text><text class="cls-2" transform="translate(195.92 50.14) rotate(30.13)">I</text><text class="cls-2" transform="translate(203.29 54.11) rotate(36.9)">D</text></g><g id="_100_копия_" data-name="100% (копия)"><circle class="cls-4" cx="139.5" cy="139.5" r="130"/><text class="cls-5" transform="matrix(-1, -0.02, 0.02, -1, 146.03, 9.71)"> </text><text class="cls-5" transform="translate(137.41 9.56) rotate(177.46)"> </text><text class="cls-5" transform="matrix(-0.99, 0.11, -0.11, -0.99, 128.77, 9.99)"> </text><text class="cls-5" transform="translate(120.18 11) rotate(169.67)"> </text><text class="cls-5" transform="translate(111.69 12.6) rotate(165.75)"> </text><text class="cls-5" transform="translate(103.3 14.78) rotate(161.81)"> </text><text class="cls-5" transform="matrix(-0.93, 0.38, -0.38, -0.93, 95.1, 17.52)"> </text><text class="cls-5" transform="translate(87.12 20.82) rotate(153.97)"> </text><text class="cls-5" transform="translate(79.37 24.66) rotate(150.06)"> </text><text class="cls-5" transform="translate(71.91 29.01) rotate(146.16)"> </text><text class="cls-5" transform="translate(64.75 33.87) rotate(142.27)"> </text><text class="cls-5" transform="translate(57.97 39.17) rotate(138.39)"> </text><text class="cls-5" transform="translate(51.53 44.96) rotate(134.51)"> </text><text class="cls-5" transform="matrix(-0.65, 0.76, -0.76, -0.65, 45.51, 51.14)"> </text><text class="cls-5" transform="matrix(-0.6, 0.8, -0.8, -0.6, 39.92, 57.73)"> </text><text class="cls-5" transform="matrix(-0.54, 0.84, -0.84, -0.54, 34.79, 64.68)"> </text><text class="cls-5" transform="translate(30.15 71.96) rotate(118.96)"> </text><text class="cls-5" transform="matrix(-0.42, 0.91, -0.91, -0.42, 26, 79.56)"> </text><text class="cls-5" transform="translate(22.39 87.4) rotate(111.12)"> </text><text class="cls-5" transform="matrix(-0.3, 0.96, -0.96, -0.3, 19.31, 95.5)"> </text><text class="cls-5" transform="matrix(-0.23, 0.97, -0.97, -0.23, 16.8, 103.78)"> </text><text class="cls-5" transform="matrix(-0.16, 0.99, -0.99, -0.16, 14.87, 112.2)"> </text><text class="cls-5" transform="translate(13.51 120.74) rotate(95.44)"> </text><text class="cls-5" transform="translate(12.74 129.36) rotate(91.56)"> </text><text class="cls-5" transform="translate(12.55 137.98) rotate(87.73)"> </text><text class="cls-5" transform="matrix(0.11, 0.99, -0.99, 0.11, 12.94, 146.6)"> </text><text class="cls-5" transform="translate(13.91 155.18) rotate(79.96)"> </text><text class="cls-5" transform="translate(15.46 163.69) rotate(76.04)"> </text><text class="cls-5" transform="translate(17.59 172.07) rotate(72.11)"> </text><text class="cls-5" transform="matrix(0.37, 0.93, -0.93, 0.37, 20.3, 180.28)"> </text><text class="cls-5" transform="translate(23.56 188.31) rotate(64.25)"> </text><text class="cls-5" transform="matrix(0.49, 0.87, -0.87, 0.49, 27.35, 196.06)"> </text><text class="cls-5" transform="matrix(0.55, 0.83, -0.83, 0.55, 31.67, 203.54)"> </text><text class="cls-5" transform="matrix(0.61, 0.79, -0.79, 0.61, 36.49, 210.73)"> </text><text class="cls-5" transform="matrix(0.66, 0.75, -0.75, 0.66, 41.78, 217.56)"> </text><text class="cls-5" transform="translate(47.56 224.08) rotate(44.51)">I</text><text class="cls-5" transform="matrix(0.78, 0.62, -0.62, 0.78, 54.86, 231.34)">T</text><text class="cls-5" transform="matrix(0.84, 0.54, -0.54, 0.84, 67.92, 241.37)"> </text><text class="cls-5" transform="translate(75.26 246.05) rotate(28.54)">I</text><text class="cls-5" transform="translate(84.33 251.09) rotate(22.19)">S</text><text class="cls-5" transform="translate(100.77 257.44) rotate(16.1)"> </text><text class="cls-5" transform="translate(109.69 260.21) rotate(9.45)">N</text><text class="cls-5" transform="translate(129.89 263.27) rotate(0.93)">E</text><text class="cls-5" transform="matrix(0.99, -0.13, 0.13, 0.99, 147.8, 263.43)">C</text><text class="cls-5" transform="translate(167.39 260.57) rotate(-16.1)">E</text><text class="cls-5" transform="translate(184.41 255.49) rotate(-24.24)">S</text><text class="cls-5" transform="translate(201.31 247.64) rotate(-32.66)">S</text><text class="cls-5" transform="translate(216.52 237.69) rotate(-40.94)">A</text><text class="cls-5" transform="translate(230.56 225.29) rotate(-49.48)">R</text><text class="cls-5" transform="translate(242.99 210.41) rotate(-58.07)">Y</text><circle class="cls-4" cx="139.5" cy="139.5" r="137"/><circle class="cls-6" cx="139.5" cy="139.5" r="99"/><text class="cls-5" transform="translate(39.63 97.01) rotate(-61.27)">M</text><text class="cls-5" transform="matrix(0.62, -0.78, 0.78, 0.62, 49.72, 78.99)">A</text><text class="cls-5" transform="translate(59.68 66.38) rotate(-42.96)">R</text><text class="cls-5" transform="matrix(0.83, -0.56, 0.56, 0.83, 71.85, 55.01)">K</text><text class="cls-5" transform="matrix(0.9, -0.43, 0.43, 0.9, 86.02, 45.5)">E</text><text class="cls-5" transform="matrix(0.95, -0.3, 0.3, 0.95, 99.81, 38.93)">T</text><text class="cls-5" transform="translate(113.67 34.52) rotate(-9.62)">E</text><text class="cls-5" transform="translate(128.7 31.91) rotate(-1.2)">R</text><text class="cls-5" transform="translate(145.5 31.82) rotate(5.09)"> </text><text class="cls-5" transform="translate(152.88 32.48) rotate(9.01)"> </text><text class="cls-5" transform="matrix(0.97, 0.26, -0.26, 0.97, 160.12, 33.41)">S</text><text class="cls-5" transform="translate(175.19 37.46) rotate(23.6)">A</text><text class="cls-5" transform="translate(189.92 44.14) rotate(30.13)">I</text><text class="cls-5" transform="translate(197.29 48.11) rotate(36.9)">D</text></g></svg>