<?xml version="1.0" encoding="utf-8"?>
<!-- Generator: Adobe Illustrator 28.3.0, SVG Export Plug-In . SVG Version: 6.00 Build 0)  -->
<svg version="1.1" id="Layer_1" xmlns="http://www.w3.org/2000/svg" xmlns:xlink="http://www.w3.org/1999/xlink" x="0px" y="0px"
	 viewBox="0 0 736.7 645.7" style="enable-background:new 0 0 736.7 645.7;" xml:space="preserve">
<style type="text/css">
	.st0{fill:#F4E6D3;}
</style>
<g>
	<g id="Layer_1_1_">
		
			<image style="overflow:visible;opacity:0.5;" width="769" height="672" xlink:href="F2FE9517.png"  transform="matrix(0.958 0 0 0.958 0 0)">
		</image>
		<g>
			<path class="st0" d="M448.5,353.5h97.8c2.4,0,4.6-1.3,5.7-3.3l10.9-18.9c1.2-2,1.2-4.6,0-6.6l-78.8-136.5
				c-1.2-2.1-3.4-3.3-5.7-3.3h-29.9c-3.7,0-6.6,3-6.6,6.6v0v155.4C441.9,350.5,444.8,353.5,448.5,353.5z"/>
			<path class="st0" d="M237.1,277.4V122c0-3.7-3-6.6-6.6-6.6h0h-30.1c-2.4,0-4.6,1.3-5.7,3.3l-78.8,136.5c-1.2,2.1-1.2,4.6,0,6.6
				l10.9,18.8c1.2,2.1,3.4,3.3,5.7,3.3h98C234.2,284,237.1,281.1,237.1,277.4L237.1,277.4z"/>
			<path class="st0" d="M230.5,323.7H163c-3.7,0-6.6,2.9-6.6,6.6c0,1.2,0.3,2.3,0.9,3.3l37.4,64.8c1.2,2.1,3.4,3.3,5.7,3.3h30.1
				c3.7,0,6.6-3,6.6-6.6v0v-64.8C237.1,326.7,234.2,323.7,230.5,323.7z"/>
			<path class="st0" d="M402.2,184.9H402l-38.2-66.1c-1.2-2.1-3.4-3.3-5.7-3.3h-74.6c-3.6,0-6.6,3-6.6,6.6v277.9
				c0,1.2,0.3,2.3,0.9,3.3l37.3,64.6c1.2,2.1,3.4,3.3,5.7,3.3h74.8c3.7,0,6.6-3,6.6-6.6l0,0L402.2,184.9z"/>
			<path class="st0" d="M441.8,399.8v64.8c0,3.7,3,6.6,6.6,6.6h0h29.9c2.4,0,4.6-1.3,5.7-3.3l37.4-64.8c1.8-3.2,0.7-7.2-2.4-9
				c-1-0.6-2.2-0.9-3.3-0.9h-67.3C444.8,393.1,441.9,396.1,441.8,399.8C441.8,399.7,441.8,399.8,441.8,399.8z"/>
		</g>
	</g>
</g>
</svg>
