<?xml version="1.0" encoding="utf-8"?>
<!-- Generator: Adobe Illustrator 28.3.0, SVG Export Plug-In . SVG Version: 6.00 Build 0)  -->
<svg version="1.1" id="Layer_1" xmlns="http://www.w3.org/2000/svg" xmlns:xlink="http://www.w3.org/1999/xlink" x="0px" y="0px"
	 viewBox="0 0 1076.2 385.5" style="enable-background:new 0 0 1076.2 385.5;" xml:space="preserve">
<style type="text/css">
	.st0{fill:#F4E6D3;}
	.st1{enable-background:new    ;}
</style>
<g id="Layer_1-2">
	<path class="st0" d="M348.1,248.5h102.1c2.5,0,4.8-1.3,6-3.4l11.4-19.7c1.2-2.1,1.2-4.8,0-6.9L385.3,76c-1.2-2.1-3.5-3.5-6-3.5
		h-31.2c-3.8,0-6.9,3.1-6.9,6.9l0,0v162.2C341.2,245.4,344.3,248.5,348.1,248.5z"/>
	<path class="st0" d="M127.5,169.1V6.9c0-3.8-3.1-6.9-6.9-6.9c0,0,0,0,0,0H89.2c-2.5,0-4.8,1.3-6,3.5L0.9,146
		c-1.2,2.1-1.2,4.8,0,6.9l11.4,19.7c1.2,2.1,3.5,3.5,6,3.5h102.3C124.4,176,127.5,172.9,127.5,169.1L127.5,169.1L127.5,169.1z"/>
	<path class="st0" d="M120.6,217.4H50.1c-3.8,0-6.9,3.1-6.9,6.9c0,1.2,0.3,2.4,0.9,3.5l39,67.6c1.2,2.1,3.5,3.5,6,3.5h31.4
		c3.8,0,6.9-3.1,6.9-6.9v0l0,0v-67.6C127.5,220.5,124.4,217.4,120.6,217.4z"/>
	<path class="st0" d="M299.8,72.5h-0.2l-39.9-69c-1.2-2.1-3.5-3.5-6-3.5h-77.9C172,0.1,169,3.2,169,7c0,0,0,0,0,0v290
		c0,1.2,0.3,2.4,0.9,3.5l38.9,67.5c1.2,2.1,3.5,3.5,6,3.5h78c3.8,0,6.9-3.1,6.9-6.9l0,0l0,0L299.8,72.5z"/>
	<path class="st0" d="M341.2,296.8v67.6c0,3.8,3.1,6.9,6.9,6.9h0h31.2c2.5,0,4.8-1.3,6-3.5l39-67.6c1.9-3.3,0.8-7.5-2.5-9.4
		c0,0,0,0,0,0c-1.1-0.6-2.2-0.9-3.5-0.9h-70.2C344.3,289.9,341.2,293,341.2,296.8C341.2,296.8,341.2,296.8,341.2,296.8L341.2,296.8z
		"/>
	<g class="st1">
		<path class="st0" d="M529.9,112.6h-11v19.4H492v-19.4h-40V92.7l41.8-61h25.1v60.7h11L529.9,112.6z M492,92.4V80.7
			c0-2.2,0.1-5.2,0.2-8.9s0.3-5.7,0.4-5.9h-0.8c-1.5,3.4-3.3,6.7-5.3,9.9l-11.1,16.6H492z"/>
		<path class="st0" d="M615.7,63.6c0,11.2-3.3,19.9-9.9,26c-6.6,6.1-16,9.2-28.2,9.2H570v33.3h-27.2V31.7h34.7
			c12.7,0,22.2,2.8,28.6,8.3S615.7,53.4,615.7,63.6z M570,76.6h5c4.1,0,7.3-1.1,9.7-3.4s3.6-5.4,3.6-9.5c0-6.8-3.8-10.2-11.3-10.2
			h-7L570,76.6z"/>
		<path class="st0" d="M657,132.1h-26.9V25.2H657V132.1z"/>
		<path class="st0" d="M726.3,132.1l-5.2-10.3h-0.5c-3.6,4.5-7.3,7.6-11.1,9.2c-3.8,1.6-8.6,2.5-14.6,2.5c-7.3,0-13.1-2.2-17.3-6.6
			s-6.3-10.6-6.3-18.5c0-8.3,2.9-14.4,8.7-18.5c5.8-4.1,14.1-6.3,25.1-6.8l13-0.4v-1.1c0-6.4-3.2-9.6-9.5-9.6
			c-5.7,0-12.9,1.9-21.6,5.8l-7.8-17.7c9.1-4.7,20.5-7,34.3-7c10,0,17.7,2.5,23.2,7.4s8.2,11.8,8.2,20.7v51L726.3,132.1z
			 M706.4,114.5c3.1,0.1,6.1-1,8.3-3.1c2.3-2,3.6-5,3.5-8v-6l-6.2,0.3c-8.8,0.3-13.2,3.6-13.2,9.8
			C698.8,112.1,701.3,114.5,706.4,114.5L706.4,114.5z"/>
		<path class="st0" d="M753.8,54.2h28.3l13.2,44.6c0.7,2.8,1.1,5.6,1.3,8.4h0.5c0.3-2.8,0.9-5.6,1.7-8.3l13.5-44.7h27.4L808.9,137
			c-3.9,10.5-8.8,18-14.5,22.3c-5.8,4.3-13.2,6.5-22.5,6.5c-3.7,0-7.4-0.4-11-1.2v-21.1c2.7,0.6,5.5,0.8,8.3,0.8
			c2.2,0,4.3-0.4,6.2-1.4c1.8-0.9,3.4-2.3,4.7-3.9c1.8-2.5,3.2-5.3,4.3-8.2L753.8,54.2z"/>
		<path class="st0" d="M886.5,133.4c-13,0-23-3.4-30.2-10.3c-7.2-6.9-10.7-16.7-10.8-29.4c0-13.1,3.3-23.2,10-30.2
			c6.7-7,16.1-10.5,28.4-10.5c11.7,0,20.8,3.1,27.2,9.2c6.4,6.1,9.6,14.9,9.6,26.4v11.9h-48c0,4,1.7,7.7,4.8,10.2
			c3,2.5,7.1,3.7,12.2,3.7c4.4,0,8.7-0.4,13-1.3c4.4-1.1,8.8-2.6,12.9-4.6v19.3c-4.1,2.1-8.5,3.6-13,4.5
			C897.3,133.1,891.9,133.5,886.5,133.4z M885,71.1c-2.9-0.1-5.8,1-7.9,3c-2.1,2-3.4,5.1-3.7,9.4h23.1c0.1-3.3-1.1-6.5-3.2-9
			C891.1,72.2,888.1,71,885,71.1z"/>
		<path class="st0" d="M982.9,52.9c2.2,0,4.5,0.2,6.7,0.5l1.5,0.3L988.6,79c-3-0.6-6.1-0.9-9.1-0.8c-5.9,0-10.1,1.3-12.8,4
			c-2.7,2.7-4,6.5-4,11.6V132h-26.8V54.2h20l4.2,12.4h1.3c2.2-4.1,5.4-7.5,9.4-10C974.4,54.3,978.6,53,982.9,52.9z"/>
		<path class="st0" d="M1062,108.2c0,8.3-2.8,14.6-8.5,18.9s-13.8,6.4-24.5,6.4c-5,0-10-0.3-15-0.9c-4.4-0.7-8.8-1.8-13-3.4v-21.5
			c4.4,1.9,9,3.4,13.7,4.5c4.3,1.1,8.8,1.7,13.3,1.8c5.8,0,8.7-1.3,8.7-4c0-1.4-0.8-2.6-2.4-3.7s-6.4-3.2-14.2-6.3
			c-7.1-2.9-12.1-6.3-15-10s-4.3-8.5-4.3-14.2c0-7.2,2.8-12.9,8.4-16.9s13.5-6,23.7-6c4.9,0,9.7,0.5,14.4,1.7
			c4.8,1.2,9.5,2.9,14,4.9l-7.3,17.3c-3.7-1.6-7.5-3-11.3-4.1c-3.2-1-6.4-1.6-9.7-1.7c-4.4,0-6.6,1.1-6.6,3.2c0,1.3,0.8,2.5,2.3,3.4
			s6,2.8,13.3,5.7c5.4,2.2,9.5,4.4,12.2,6.6c2.6,2,4.6,4.6,5.9,7.6C1061.4,100.9,1062.1,104.5,1062,108.2z"/>
	</g>
	<g class="st1">
		<path class="st0" d="M678.3,267.4c0.1,5.9-1.5,11.7-4.7,16.6c-3.4,5-8.1,8.9-13.7,11.3c-6.6,2.8-13.8,4.2-20.9,4
			c-5.6,0.1-11.3-0.4-16.8-1.4c-4.9-1.1-9.6-2.7-14.1-4.9v-24.2c5.1,2.6,10.5,4.7,16.1,6.2c5,1.4,10.2,2.2,15.4,2.2
			c4,0,7-0.7,8.9-2.1c1.8-1.2,2.8-3.2,2.8-5.4c0-1.3-0.4-2.6-1.1-3.6c-1-1.3-2.2-2.3-3.6-3.1c-4.3-2.4-8.8-4.5-13.4-6.5
			c-6.5-3-11.4-5.8-14.7-8.6c-3.1-2.6-5.6-5.9-7.3-9.6c-1.7-4.1-2.5-8.4-2.4-12.8c0-9.2,3.4-16.5,10.1-21.6s16-7.8,27.7-7.8
			c11,0.1,21.8,2.6,31.8,7.2l-8.3,20.9c-9.4-4.3-17.5-6.5-24.3-6.5c-3.5,0-6.1,0.6-7.7,1.9c-1.5,1-2.4,2.8-2.4,4.6
			c0,2,1,3.8,3.1,5.3c2,1.5,7.6,4.4,16.5,8.5c8.7,3.9,14.7,8.1,18,12.5C676.5,255,678.2,260.6,678.3,267.4z"/>
		<path class="st0" d="M730.3,278c4.5-0.2,8.8-1.1,13-2.7V295c-3.3,1.4-6.8,2.5-10.3,3.3c-3.8,0.7-7.6,1-11.5,1
			c-9,0-15.5-2.2-19.5-6.6s-6-11.2-6-20.4v-32.1h-9.4v-10.9l12-8.4l6.9-16.4H723v15.6h19.1v20.1H723v30.3
			C723,275.5,725.4,278,730.3,278z"/>
		<path class="st0" d="M812.3,297.9l-3.4-9.7h-1.6c-2.3,3.6-5.5,6.4-9.4,8.2c-4.4,2-9.3,3-14.1,2.9c-8.6,0-15.2-2.5-20-7.5
			c-4.8-5-7.1-12-7.1-21v-50.7h26.9v42.5c0,5.1,0.7,8.9,2.2,11.5c1.5,2.6,3.8,3.9,7.1,3.9c4.6,0,7.9-1.8,9.9-5.5c2-3.6,3-9.8,3-18.4
			v-34.1h26.8v77.8L812.3,297.9z"/>
		<path class="st0" d="M875.3,299.3c-5.2,0.1-10.3-1.6-14.5-4.7c-4.1-3.2-7.4-7.8-9.6-13.9c-2.4-6.9-3.5-14.2-3.4-21.5
			c0-12.6,2.5-22.5,7.6-29.7c5.1-7.1,12.1-10.7,20.9-10.7c4-0.1,7.9,0.8,11.4,2.6c3.7,2.1,6.8,5.1,9,8.8h0.5
			c-0.9-6.1-1.3-12.2-1.3-18.3V191h27v106.8h-20.2l-5.7-9.8h-1C891.3,295.5,884.4,299.3,875.3,299.3z M886.3,278
			c4.3,0,7.3-1.3,9.1-4s2.7-6.9,2.8-12.5v-2.1c0-6.9-1-11.8-3-14.7c-2-2.9-5.1-4.4-9.2-4.4c-3.5,0-6.3,1.7-8.2,5
			c-1.9,3.3-2.9,8.1-2.9,14.2c0,6.1,1,10.7,3,13.8C879.6,276.3,882.8,278.1,886.3,278L886.3,278z"/>
		<path class="st0" d="M941,200.7c0-4,1.1-7,3.4-9c2.2-2,5.9-3,10.8-3c5,0,8.6,1,10.9,3c2.3,2,3.4,5,3.4,8.9
			c0,7.9-4.8,11.8-14.3,11.8C945.7,212.5,940.9,208.6,941,200.7z M968.5,297.9h-26.9v-77.8h26.8L968.5,297.9z"/>
		<path class="st0" d="M1061.6,258.8c0,12.7-3.4,22.6-10.3,29.8c-6.8,7.1-16.4,10.7-28.7,10.7c-11.8,0-21.2-3.6-28.2-10.9
			c-7-7.3-10.5-17.1-10.5-29.5c0-12.7,3.4-22.5,10.3-29.6c6.8-7,16.4-10.6,28.8-10.5c7.1-0.1,14,1.5,20.3,4.9
			c5.8,3.2,10.5,8.1,13.6,14C1060,243.6,1061.6,250.7,1061.6,258.8z M1011.2,258.8c0,6.7,0.9,11.8,2.7,15.3c1.8,3.5,4.8,5.2,9,5.2
			c4.2,0,7.1-1.8,8.8-5.2s2.6-8.6,2.6-15.3c0-6.7-0.9-11.6-2.6-15s-4.7-5.1-8.9-5.1s-7.1,1.7-8.9,5S1011.2,252.1,1011.2,258.8
			L1011.2,258.8z"/>
	</g>
</g>
</svg>
