<svg id="Слой_1" data-name="Слой 1" xmlns="http://www.w3.org/2000/svg" viewBox="0 0 237 238"><defs><style>.cls-1{fill:#203956;opacity:0.5;}.cls-2{fill:#fff;}.cls-3{fill:#f2e6d5;}</style></defs><title>PlayBtn_Circle</title><path class="cls-1" d="M263,148A117,117,0,1,0,380,265,117,117,0,0,0,263,148Zm107.73,94.49a4,4,0,1,1-.5,5.63A4,4,0,0,1,370.73,242.49ZM356.53,207a4,4,0,1,1,1.46,5.46A4,4,0,0,1,356.53,207Zm-25.48-28.49a4,4,0,1,1,3.25,4.63A4,4,0,0,1,331.05,178.51Zm-30.44-22.69a4,4,0,1,1-3.24,4.63A4,4,0,0,1,300.61,155.82ZM261,149.54a4,4,0,1,1-1.46,5.46A4,4,0,0,1,261,149.54Zm-39.37,7.64a4,4,0,1,1,.49,5.64A4,4,0,0,1,221.63,157.18Zm-34.38,20.65a4,4,0,1,1,2.39,5.13A4,4,0,0,1,187.25,177.83ZM166,205a4,4,0,1,1-4,4A4,4,0,0,1,166,205Zm-14.68,36.79a4,4,0,1,1-2.39,5.13A4,4,0,0,1,151.33,241.79Zm3.94,45.72a4,4,0,1,1,.5-5.63A4,4,0,0,1,155.27,287.51ZM169.47,323a4,4,0,1,1-1.46-5.46A4,4,0,0,1,169.47,323ZM195,351.49a4,4,0,1,1-3.25-4.63A4,4,0,0,1,195,351.49Zm30.44,22.69a4,4,0,1,1,3.24-4.63A4,4,0,0,1,225.39,374.18ZM265,380.46a4,4,0,1,1,1.46-5.46A4,4,0,0,1,265,380.46Zm39.37-7.64a4,4,0,1,1-.49-5.64A4,4,0,0,1,304.37,372.82Zm34.38-20.65a4,4,0,1,1-2.39-5.13A4,4,0,0,1,338.75,352.17Zm-.09-11.51A107,107,0,1,1,370,265,106.3,106.3,0,0,1,338.66,340.66ZM360,325a4,4,0,1,1,4-4A4,4,0,0,1,360,325Zm14.68-36.79a4,4,0,1,1,2.39-5.13A4,4,0,0,1,374.67,288.21Z" transform="translate(-143 -144)"/><path class="cls-1" d="M263,368.5A103.5,103.5,0,1,1,366.5,265,103.62,103.62,0,0,1,263,368.5Zm0-202A98.5,98.5,0,1,0,361.5,265,98.62,98.62,0,0,0,263,166.5Z" transform="translate(-143 -144)"/><path class="cls-2" d="M260,144A117,117,0,1,0,377,261,117,117,0,0,0,260,144Zm107.73,94.49a4,4,0,1,1-.5,5.63A4,4,0,0,1,367.73,238.49ZM353.53,203a4,4,0,1,1,1.46,5.46A4,4,0,0,1,353.53,203Zm-25.48-28.49a4,4,0,1,1,3.25,4.63A4,4,0,0,1,328.05,174.51Zm-30.44-22.69a4,4,0,1,1-3.24,4.63A4,4,0,0,1,297.61,151.82ZM258,145.54a4,4,0,1,1-1.46,5.46A4,4,0,0,1,258,145.54Zm-39.37,7.64a4,4,0,1,1,.49,5.64A4,4,0,0,1,218.63,153.18Zm-34.38,20.65a4,4,0,1,1,2.39,5.13A4,4,0,0,1,184.25,173.83ZM163,201a4,4,0,1,1-4,4A4,4,0,0,1,163,201Zm-14.68,36.79a4,4,0,1,1-2.39,5.13A4,4,0,0,1,148.33,237.79Zm3.94,45.72a4,4,0,1,1,.5-5.63A4,4,0,0,1,152.27,283.51ZM166.47,319a4,4,0,1,1-1.46-5.46A4,4,0,0,1,166.47,319ZM192,347.49a4,4,0,1,1-3.25-4.63A4,4,0,0,1,192,347.49Zm30.44,22.69a4,4,0,1,1,3.24-4.63A4,4,0,0,1,222.39,370.18ZM262,376.46a4,4,0,1,1,1.46-5.46A4,4,0,0,1,262,376.46Zm39.37-7.64a4,4,0,1,1-.49-5.64A4,4,0,0,1,301.37,368.82Zm34.38-20.65a4,4,0,1,1-2.39-5.13A4,4,0,0,1,335.75,348.17Zm-.09-11.51A107,107,0,1,1,367,261,106.3,106.3,0,0,1,335.66,336.66ZM357,321a4,4,0,1,1,4-4A4,4,0,0,1,357,321Zm14.68-36.79a4,4,0,1,1,2.39-5.13A4,4,0,0,1,371.67,284.21Z" transform="translate(-143 -144)"/><path class="cls-3" d="M260,364.5A103.5,103.5,0,1,1,363.5,261,103.62,103.62,0,0,1,260,364.5Zm0-202A98.5,98.5,0,1,0,358.5,261,98.62,98.62,0,0,0,260,162.5Z" transform="translate(-143 -144)"/></svg>